<svg width="50" height="50" viewBox="0 0 50 50" fill="none" xmlns="http://www.w3.org/2000/svg">
<path fill-rule="evenodd" clip-rule="evenodd" d="M46.0833 4H3.91667V46H46.0833V4ZM2 2V48H48V2H2Z" fill="#1E1E24"/>
<path fill-rule="evenodd" clip-rule="evenodd" d="M8.32353 25.3899C6.47059 22.7972 4 19.4404 4 15.6672C4 9.22358 8.97754 4 15.1176 4C19.4201 4 23.1517 6.56477 25 10.3169C26.8483 6.56477 30.5799 4 34.8824 4C41.0225 4 46 9.22358 46 15.6672C46 19.4404 43.5294 22.7972 41.6765 25.3899L25.9649 45.5131C25.4704 46.1623 24.5296 46.1623 24.0351 45.5131L8.32353 25.3899Z" fill="#F85A3E"/>
<path fill-rule="evenodd" clip-rule="evenodd" d="M23.8339 8.42389C21.7974 5.7287 18.6499 4 15.1176 4C8.97754 4 4 9.22358 4 15.6672C4 19.346 6.34848 22.6289 8.18331 25.1938C8.2304 25.2596 8.27716 25.325 8.32353 25.3899L24.0351 45.5131C24.5296 46.1623 25.4704 46.1623 25.9649 45.5131L41.6765 25.3899C41.7228 25.325 41.7696 25.2597 41.8167 25.1938C43.6515 22.6289 46 19.346 46 15.6672C46 9.22358 41.0225 4 34.8824 4C31.3501 4 28.2026 5.7287 26.1661 8.42389C25.7221 9.01157 25.3309 9.64521 25 10.3169C24.6691 9.6452 24.2779 9.01157 23.8339 8.42389ZM40.1728 24.1568C40.2039 24.1134 40.235 24.0698 40.2662 24.0263C41.1774 22.752 42.1176 21.4372 42.8562 20.0152C43.6216 18.5417 44.0909 17.0964 44.0909 15.6672C44.0909 10.3249 39.965 6 34.8824 6C31.3232 6 28.2307 8.11963 26.6965 11.2341L25 14.6781L23.3035 11.2341C21.7693 8.11963 18.6768 6 15.1176 6C10.035 6 5.90909 10.3249 5.90909 15.6672C5.90909 17.0964 6.37837 18.5417 7.14379 20.0152C7.88241 21.4372 8.82263 22.752 9.73384 24.0263C9.76499 24.0698 9.79611 24.1134 9.82718 24.1568L25 43.59L40.1728 24.1568Z" fill="#1E1E24"/>
<g clip-path="url(#clip0)">
<path fill-rule="evenodd" clip-rule="evenodd" d="M19.5459 16.7939C19.957 17.0954 20.0459 17.673 19.7444 18.0841L15.0678 24.4613L19.7444 30.8385C20.0459 31.2496 19.957 31.8273 19.5459 32.1288C19.1348 32.4303 18.5571 32.3414 18.2556 31.9303L13.1787 25.0072C12.9404 24.6823 12.9404 24.2404 13.1787 23.9155L18.2556 16.9924C18.5571 16.5813 19.1348 16.4924 19.5459 16.7939Z" fill="#F9F0F1"/>
<path fill-rule="evenodd" clip-rule="evenodd" d="M30.4541 16.7939C30.043 17.0954 29.9541 17.673 30.2556 18.0841L34.9322 24.4613L30.2556 30.8385C29.9541 31.2496 30.043 31.8273 30.4541 32.1288C30.8652 32.4303 31.4429 32.3414 31.7444 31.9303L36.8213 25.0072C37.0596 24.6823 37.0596 24.2404 36.8213 23.9155L31.7444 16.9924C31.4429 16.5813 30.8652 16.4924 30.4541 16.7939Z" fill="#F9F0F1"/>
<path fill-rule="evenodd" clip-rule="evenodd" d="M28.404 14.1231C28.8882 14.2825 29.1516 14.8042 28.9922 15.2885L22.9922 33.5193C22.8328 34.0035 22.3111 34.2669 21.8268 34.1075C21.3426 33.9481 21.0792 33.4264 21.2386 32.9421L27.2386 14.7114C27.398 14.2271 27.9197 13.9637 28.404 14.1231Z" fill="#F9F0F1"/>
</g>
<path d="M0 0H6V6H0V0Z" fill="#F9F0F1"/>
<path fill-rule="evenodd" clip-rule="evenodd" d="M4 2H2V4H4V2ZM0 0V6H6V0H0Z" fill="#1E1E24"/>
<path d="M44 0H50V6H44V0Z" fill="#F9F0F1"/>
<path fill-rule="evenodd" clip-rule="evenodd" d="M48 2H46V4H48V2ZM44 0V6H50V0H44Z" fill="#1E1E24"/>
<path d="M44 44H50V50H44V44Z" fill="#F9F0F1"/>
<path fill-rule="evenodd" clip-rule="evenodd" d="M48 46H46V48H48V46ZM44 44V50H50V44H44Z" fill="#1E1E24"/>
<path d="M0 44H6V50H0V44Z" fill="#F9F0F1"/>
<path fill-rule="evenodd" clip-rule="evenodd" d="M4 46H2V48H4V46ZM0 44V50H6V44H0Z" fill="#1E1E24"/>
<defs>
<clipPath id="clip0">
<rect width="24" height="24" fill="white" transform="translate(13 12)"/>
</clipPath>
</defs>
</svg>
